<svg xmlns="http://www.w3.org/2000/svg" width="1000" height="1000"><path d="M219.119 941.691h577.031c22.843 0 41.382-18.54 41.382-41.493V695.495c-7.394-24.829-28.581-27.147-48.444-8.277-1.766 0-21.629 24.388-67.315 24.388-54.514-1.656-98.986-41.934-107.262-94.572h-.552c-.432-3.864-.432-25.16 0-29.023h.552c8.276-52.527 52.748-92.916 107.262-94.572 45.685 0 65.438 24.388 67.315 24.388 19.311 18.318 40.72 13.904 48.444-8.056l.096-189.364c0-19.201-13.242-36.306-31.009-40.941-3.312.883-179.763 0-179.763 0-43.479 3.533-58.707-25.712-34.54-51.204 0-1.766 24.388-21.629 24.388-67.315-1.656-54.514-42.044-98.986-94.572-107.262v-.552c-3.864-.432-25.161-.432-29.023 0v.552c-52.527 8.277-92.916 52.749-94.682 107.262 0 45.686 24.388 65.439 24.388 67.315 24.277 25.491 14.125 53.521-34.32 51.204H208.732c-17.877 4.637-31.119 21.629-31.119 40.941v579.789c0 22.843 18.539 41.493 41.492 41.493z"/></svg>
