<svg xmlns="http://www.w3.org/2000/svg" width="169" height="36"><defs><path id="A" d="M24.818 13.92c-3.047-2.61-4.76-6.349-6.347-6.349s-3.299 3.739-6.347 6.349c-2.422 2.075 3.174 2.54 6.347 0 3.174 2.54 8.77 2.075 6.347 0z"/></defs><g transform="translate(.157 .341)"><path fill="#662113" d="M17.144 32.605c0 1.997-1.619 2.712-3.616 2.712s-3.616-.715-3.616-2.712l.904-8.136c0-1.996.715-1.808 2.712-1.808s2.712-.188 2.712 1.808z"/><path fill="#5c913b" d="M25.646 27.45c-6.294-5.392-8.843-13.112-12.118-13.112S7.704 22.059 1.41 27.45c-2.645 2.266-1.385 3.577 2.241 3.314 3.232-.233 6.255-.966 9.877-.966s6.646.733 9.876.966c3.627.263 4.886-1.049 2.242-3.314z"/><path fill="#3e721d" d="M23.602 25.313c-4.837-4.435-7.555-10.787-10.074-10.787S8.292 20.878 3.455 25.313c-3.844 3.524 5.037 4.315 10.073 0 5.034 4.316 13.917 3.524 10.074 0z"/><path fill="#5c913b" d="M23.602 21.72c-4.837-4.143-7.555-10.077-10.074-10.077S8.292 17.577 3.455 21.72c-3.844 3.292 5.037 4.031 10.073 0 5.034 4.032 13.917 3.292 10.074 0z"/><path fill="#3e721d" d="M21.392 18.778c-3.775-3.235-5.897-7.868-7.864-7.868s-4.088 4.632-7.864 7.868c-3 2.57 3.932 3.147 7.864 0 3.93 3.146 10.865 2.57 7.864 0z"/><path fill="#5c913b" d="M21.392 16.086c-3.775-3.235-5.897-7.867-7.864-7.867s-4.088 4.632-7.864 7.867c-3 2.571 3.932 3.147 7.864 0 3.93 3.147 10.865 2.571 7.864 0z"/><use href="#A" fill="#3e721d" x="-4.944" y="-.225"/><use href="#A" y="-2.251" fill="#5c913b" x="-4.944"/><path fill="#3e721d" d="M18.357 8.686c-2.318-1.986-3.621-4.831-4.829-4.831S11.017 6.7 8.698 8.686c-1.843 1.579 2.415 1.933 4.83 0 2.414 1.933 6.673 1.579 4.829 0z"/><path fill="#5c913b" d="M18.357 7.607c-2.318-1.987-3.621-4.832-4.829-4.832s-2.511 2.845-4.83 4.832c-1.843 1.579 2.415 1.933 4.83 0 2.414 1.932 6.673 1.578 4.829 0z"/><circle fill="#ffcc4d" cx="4.388" cy="29.822" r=".5"/><circle fill="#ffac33" cx="22.469" cy="29.815" r=".5"/><circle fill="#a6d388" cx="15.056" cy="7.275" r=".5"/><g fill="#dd2e44"><circle cx="11.83" cy="7.775" r=".5"/><circle cx="19.556" cy="28.275" r=".5"/></g><circle fill="#9b59b6" cx="17.056" cy="8.775" r=".5"/><g fill="#3498db"><circle cx="13.056" cy="9.775" r=".5"/><circle cx="6.84" cy="28.293" r=".5"/><circle cx="13.437" cy="23.672" r=".5"/></g><circle fill="#ffcc4d" cx="16.358" cy="10.835" r=".5"/><g fill="#e74c3c"><circle cx="9.699" cy="12.592" r=".5"/><circle cx="6.133" cy="20.665" r=".5"/></g><circle fill="#2ecc71" cx="14.056" cy="12.775" r=".5"/><g fill="#3498db"><circle cx="17.056" cy="14.275" r=".5"/><circle cx="13.811" cy="18.268" r=".5"/></g><circle fill="#9b59b6" cx="12.056" cy="14.775" r=".5"/><circle fill="#ffac33" cx="15.056" cy="15.775" r=".5"/><circle fill="#ffcc4d" cx="9.81" cy="15.153" r=".5"/><g fill="#e67e22"><circle cx="18.056" cy="17.775" r=".5"/><circle cx="7.556" cy="22.275" r=".5"/></g><circle fill="#a6d388" cx="11.056" cy="18.775" r=".5"/><circle fill="#e74c3c" cx="16.056" cy="19.775" r=".5"/><g fill="#2ecc71"><circle cx="13.056" cy="21.275" r=".5"/><circle cx="21.556" cy="22.275" r=".5"/></g><g fill="#ffcc4d"><circle cx="10.056" cy="21.775" r=".5"/><circle cx="7.779" cy="12.199" r=".5"/><circle cx="5.787" cy="23.624" r=".5"/></g><g fill="#3498db"><circle cx="18.858" cy="22.244" r=".5"/><circle cx="1.556" cy="29.275" r=".5"/></g><circle fill="#ffac33" cx="19.891" cy="20.066" r=".5"/><g fill="#9b59b6"><circle cx="15.056" cy="25.275" r=".5"/><circle cx="10.338" cy="9.779" r=".5"/><circle cx="8.594" cy="18.63" r=".5"/><circle cx="19.834" cy="25.265" r=".5"/><circle cx="6.556" cy="25.275" r=".5"/></g><g fill="#e67e22"><circle cx="9.056" cy="25.775" r=".5"/><circle cx="23.556" cy="23.275" r=".5"/></g><g fill="#a6d388"><circle cx="17.056" cy="26.775" r=".5"/><circle cx="15.422" cy="21.801" r=".5"/><circle cx="3.715" cy="22.612" r=".5"/></g><g fill="#e74c3c"><circle cx="13.056" cy="27.775" r=".5"/><circle cx="24.239" cy="28.116" r=".5"/><circle cx="11.612" cy="24.546" r=".5"/></g><g fill="#ffcc4d"><circle cx="10.104" cy="28.398" r=".5"/><circle cx="11.556" cy="11.275" r=".5"/></g><g fill="#2ecc71"><circle cx="4.099" cy="27.415" r=".5"/><circle cx="7.49" cy="16.758" r=".5"/><circle cx="17.115" cy="23.075" r=".5"/></g><circle fill="#3498db" cx="21.749" cy="26.848" r=".5"/><path fill="#ffac33" d="M14.435 1.454a1.34 1.34 0 0 0 .817.609l1.379.269c.305.06.377.29.159.512l-.983 1.004c-.217.222-.365.657-.326.965l.17 1.394c.038.309-.159.448-.438.31l-1.257-.625a1.34 1.34 0 0 0-1.02-.013l-1.274.594c-.282.13-.476-.014-.43-.322l.205-1.39c.045-.307-.091-.745-.302-.973l-.959-1.027c-.212-.227-.135-.457.172-.508l1.385-.234a1.33 1.33 0 0 0 .832-.588l.681-1.229c.151-.272.394-.269.537.006z"/><circle fill="#e74c3c" cx="20.298" cy="16.521" r=".5"/><g fill="#2ecc71"><circle cx="15.496" cy="28.819" r=".5"/><circle cx="18.556" cy="12.275" r=".5"/></g><text xml:space="preserve" x="40.171" y="29.112" font-size="32" writing-mode="lr-tb" direction="ltr" fill="#000"><tspan x="40.171" y="29.112" font-weight="bold" font-family="sans-serif" fill="#fff">JELKLY</tspan></text></g></svg>
