<svg xmlns="http://www.w3.org/2000/svg" viewBox="0 0 36 36"><g fill="none" stroke="#000" stroke-width=".5"><path d="M18.473 30.224c-1.163 0-2.26.079-3.326.189l-.291 2.617c0 1.997 1.62 2.713 3.617 2.713s3.615-.716 3.615-2.713l-.291-2.617-3.324-.189z"/><path d="M16.391 4.976c-.749.942-1.63 2.099-2.748 3.056-.627.537-.539.929-.066 1.141-.655.602-.397 1.012.297 1.176-.533.602-1.111 1.199-1.75 1.746-1.013.868-.613 1.448.416 1.65l-.416.375c-.675.579-.726 1.032-.381 1.33l-1.135 1.061c-1.31 1.123-.725 1.864.676 2.082l-.676.611c-.706.605-.856 1.096-.631 1.457l-1.578 1.484c-1.702 1.458-.906 2.412.943 2.676l-.943.916c-.389.356-.64.684-.785.982l-1.26 1.156c-2.645 2.266-1.384 3.575 2.242 3.313 3.232-.233 6.255-.965 9.877-.965s6.645.732 9.875.965c3.627.263 4.886-1.047 2.242-3.312l-1.256-1.156c-.145-.298-.398-.626-.787-.982l-.941-.914c1.847-.265 2.642-1.221.941-2.678l-1.58-1.484c.225-.361.075-.852-.631-1.457l-.676-.611c1.401-.218 1.986-.959.676-2.082l-1.135-1.062c.343-.298.292-.751-.383-1.328l-.414-.375c1.028-.203 1.427-.783.414-1.65-.639-.547-1.217-1.144-1.75-1.746.696-.163.956-.575.299-1.178.473-.212.561-.602-.066-1.139-1.175-1.007-2.089-2.235-2.862-3.201"/></g><circle cx="9.332" cy="30.247" r=".5"/><circle cx="27.413" cy="30.24" r=".5"/><circle cx="20" cy="7.7" r=".5"/><circle cx="16.774" cy="8.2" r=".5"/><circle cx="24.5" cy="28.7" r=".5"/><circle cx="22" cy="9.2" r=".5"/><circle cx="18" cy="10.2" r=".5"/><circle cx="11.784" cy="28.718" r=".5"/><circle cx="18.381" cy="24.097" r=".5"/><circle cx="21.302" cy="11.26" r=".5"/><circle cx="14.643" cy="13.017" r=".5"/><circle cx="11.077" cy="21.09" r=".5"/><circle cx="19" cy="13.2" r=".5"/><circle cx="22" cy="14.7" r=".5"/><circle cx="18.755" cy="18.693" r=".5"/><circle cx="17" cy="15.2" r=".5"/><circle cx="20" cy="16.2" r=".5"/><circle cx="14.754" cy="15.578" r=".5"/><circle cx="23" cy="18.2" r=".5"/><circle cx="12.5" cy="22.7" r=".5"/><circle cx="16" cy="19.2" r=".5"/><circle cx="21" cy="20.2" r=".5"/><circle cx="18" cy="21.7" r=".5"/><circle cx="26.5" cy="22.7" r=".5"/><circle cx="15" cy="22.2" r=".5"/><circle cx="12.723" cy="12.624" r=".5"/><circle cx="10.731" cy="24.049" r=".5"/><circle cx="23.802" cy="22.669" r=".5"/><circle cx="6.5" cy="29.7" r=".5"/><circle cx="24.835" cy="20.491" r=".5"/><circle cx="20" cy="25.7" r=".5"/><circle cx="15.282" cy="10.204" r=".5"/><circle cx="13.538" cy="19.055" r=".5"/><circle cx="24.778" cy="25.69" r=".5"/><circle cx="11.5" cy="25.7" r=".5"/><circle cx="14" cy="26.2" r=".5"/><circle cx="28.5" cy="23.7" r=".5"/><circle cx="22" cy="27.2" r=".5"/><circle cx="20.366" cy="22.226" r=".5"/><circle cx="8.659" cy="23.037" r=".5"/><circle cx="18" cy="28.2" r=".5"/><circle cx="29.183" cy="28.541" r=".5"/><circle cx="16.556" cy="24.971" r=".5"/><circle cx="15.048" cy="28.823" r=".5"/><circle cx="16.5" cy="11.7" r=".5"/><circle cx="9.043" cy="27.84" r=".5"/><circle cx="12.434" cy="17.183" r=".5"/><circle cx="22.059" cy="23.5" r=".5"/><circle cx="26.693" cy="27.273" r=".5"/><circle cx="25.242" cy="16.946" r=".5"/><circle cx="20.44" cy="29.244" r=".5"/><circle cx="23.5" cy="12.7" r=".5"/><path fill="none" d="M19.379 1.779a1.34 1.34 0 0 0 .817.609l1.379.269c.305.06.377.29.159.512l-.983 1.004c-.217.222-.365.657-.326.965l.17 1.394c.038.309-.159.448-.438.31L18.9 6.217a1.34 1.34 0 0 0-1.02-.013l-1.274.594c-.282.13-.476-.014-.43-.322l.205-1.39c.045-.307-.091-.745-.302-.973l-.959-1.027c-.212-.227-.135-.457.172-.508l1.385-.234a1.33 1.33 0 0 0 .832-.588L18.19.527c.151-.272.394-.269.537.006z" stroke="#000" stroke-width=".5"/></svg>
