<svg xmlns="http://www.w3.org/2000/svg" width="660" height="554" fill="none"><path fill-rule="evenodd" d="M311.443 56.477c67.24-41.16 176.16-52.48 230.96-55.59 18.42-1.04 33.78 12.99 33.77 30.7v165.339c-20.02-3.184-40.933 5.525-52.427 23.813-9.796 15.585-10.427 34.449-3.205 50.089-14.21-.904-28.396 4.027-38.98 13.85v-65.8c0-46.961-56.634-69.581-89.248-36.97l-.002.002-73.812 73.795h-14.326V69.647c0-5.28 2.63-10.33 7.27-13.17zm-39.26 199.228V69.467a15.05 15.05 0 0 0-7.27-12.99c-67.23-41.16-176.15-52.47-230.95-55.59-18.42-1.04-33.78 12.99-33.78 30.7v337.85c0 16.24 13.13 29.78 30.02 30.66 35.326 1.856 96.439 7.233 153.686 22.829v-114.94c0-28.879 23.403-52.281 52.282-52.281h36.012z" fill="#000"/><path d="M413.524 203.123l-82.6 82.582h-94.753a22.28 22.28 0 0 0-22.282 22.282v133.69c0 12.301 9.971 22.281 22.282 22.281h94.753l82.6 82.582c13.954 13.954 38.037 4.15 38.037-15.755V218.878c0-19.923-24.102-29.69-38.037-15.755zm245.999 171.709c0-58.982-29.765-113.21-79.629-145.054a22.19 22.19 0 0 0-30.749 6.926c-6.582 10.472-3.509 24.333 6.88 30.971 36.904 23.573 58.935 63.624 58.935 107.157s-22.031 83.584-58.935 107.156c-10.389 6.629-13.462 20.49-6.88 30.972 6.044 9.618 19.608 14.056 30.749 6.925 49.864-31.844 79.629-86.063 79.629-145.053zm-131.62-71.367c-10.751-5.876-24.315-2.005-30.275 8.774-5.932 10.778-2.005 24.324 8.773 30.275 11.986 6.582 19.432 18.977 19.432 32.318 0 13.35-7.446 25.735-19.422 32.317-10.779 5.951-14.706 19.497-8.774 30.276 5.97 10.825 19.543 14.668 30.276 8.773 26.208-14.437 42.493-41.778 42.493-71.376s-16.285-56.929-42.503-71.357z" fill="#0082c9"/></svg>
