<svg xmlns="http://www.w3.org/2000/svg" viewBox="0 0 630 630"><path d="M0 0v630h630V0H0zm479.453 285.846c37.638 0 64.703 13.112 84.154 47.367l-46.096 29.602c-10.15-18.183-21.144-25.371-38.059-25.371-17.339 0-28.334 10.995-28.334 25.371 0 17.762 10.996 24.951 36.367 35.947l14.801 6.344c50.325 21.569 78.658 43.557 78.658 93.033 0 53.287-41.866 82.465-98.109 82.465-54.976 0-90.5-26.216-107.836-60.473l48.207-27.912c12.69 20.724 29.183 35.947 58.361 35.947 24.531 0 40.174-12.265 40.174-29.182 0-20.299-16.07-27.489-43.137-39.326l-14.797-6.348c-42.715-18.181-71.051-41.017-71.051-89.227 0-44.404 33.832-78.238 86.695-78.238zm-195.814 3.385h59.203v202.137c0 61.32-35.944 89.232-88.385 89.232-47.359 0-74.849-24.527-88.805-54.127l-.002.002v-.006l48.213-29.172c9.301 16.491 17.762 30.443 38.057 30.443 19.454 0 31.719-7.611 31.719-37.211V289.23z"/></svg>
