<svg xmlns="http://www.w3.org/2000/svg" width="1000" height="1000" fill-rule="evenodd" stroke-linejoin="round" stroke-miterlimit="1.41421"><path d="M503.415 730.842l-1.25 28.765 228.868 2.501v96.3c-3.535 78.874-47.389 95.999-128.817 110.057s-171.498 5.077-205.105 0c-108.896-16.451-121.313-112.558-121.313-112.558V615.783c.481-35.684 45.171-100.562 101.302-102.553 71.167-2.524 194.071 2.041 252.63 0s130.375-58.917 132.569-132.568 1.25-115.06 1.25-115.06l90.047 2.502s119.183-4.794 121.312 246.377c1.989 234.636-179.876 216.383-180.093 216.361h-291.4zm129.442 173.84c-23.814 0-43.147-19.334-43.147-43.147s19.333-43.148 43.147-43.148 43.147 19.334 43.147 43.148-19.333 43.147-43.147 43.147zM208.066 263.133h291.4l1.25-28.765-228.868-2.501v-96.3c3.535-78.874 47.389-95.999 128.817-110.057s171.499-5.077 205.106 0c108.895 16.451 121.312 112.558 121.312 112.558v240.124c-.481 35.684-45.171 100.562-101.302 102.553-71.167 2.524-194.071-2.041-252.63 0s-130.375 58.917-132.569 132.568-1.25 115.059-1.25 115.059l-90.047-2.501S30.102 730.665 27.973 479.494c-1.99-234.776 180.093-216.361 180.093-216.361zm161.958-173.84c23.814 0 43.147 19.334 43.147 43.147s-19.333 43.148-43.147 43.148-43.147-19.334-43.147-43.148 19.333-43.147 43.147-43.147z"/></svg>
