<svg xmlns="http://www.w3.org/2000/svg" fill-rule="evenodd" stroke-linejoin="round" stroke-miterlimit="1.4" width="32" height="32"><path fill="#696969" d="M16.1 2.7a13.8 13.8 0 00-4.4 27c.7 0 1-.4 1-.7v-2.4c-3.9.9-4.7-1.8-4.7-1.8-.6-1.6-1.5-2-1.5-2-1.3-1 0-.9 0-.9 1.4.1 2.2 1.4 2.2 1.4 1.2 2.1 3.2 1.5 4 1.2a3 3 0 01.9-1.9c-3.1-.3-6.3-1.5-6.3-6.8 0-1.5.5-2.7 1.4-3.7a5 5 0 01.1-3.7s1.2-.3 3.8 1.4a13.2 13.2 0 013.5-.4c1.2 0 2.4.1 3.5.4 2.6-1.7 3.8-1.4 3.8-1.4a5 5 0 01.1 3.7c.9 1 1.4 2.2 1.4 3.7 0 5.3-3.2 6.5-6.3 6.8.5.5 1 1.3 1 2.6V29c0 .4.2.8.9.6a13.8 13.8 0 00-4.4-27"/><path d="M21.169 3.565l.864 8.465 4.932-7.319 1.141-1.26q.485-.291 1.067-.144.776.195 1.042.777.387.51.241 1.092l-.146.582-.413.412-.365.63-5.344 7.319-.632.872-.729.848-.801.314q-.437.097-1.019-.05-.776-.195-1.091-.583-.412-.413-.484-.946l-.289-1.722-1.276-8.878q.097-.388-.023-.728l-.048-.631.049-.606.365-.63.728-.436q.437-.097.922.025.873.219 1.042.777l.265 1.819z" letter-spacing="0" word-spacing="0"/></svg>
